<svg width="483" height="507" viewBox="0 0 483 507" fill="none" xmlns="http://www.w3.org/2000/svg">
<path d="M482.652 313.626C482.674 368.103 482.71 422.579 482.712 477.056C482.712 495.411 471.488 506.577 453.053 506.557C316.445 506.403 179.837 506.284 43.2291 505.907C36.5624 505.889 29.5195 504.548 23.3105 502.13C4.77065 494.912 -3.04075 478.67 2.16723 458.848C6.82107 451.994 10.4533 445.083 15.6493 439.674C71.6356 381.39 127.829 323.304 184.044 265.24C249.301 197.837 314.639 130.514 379.917 63.1319C381.341 61.6616 382.467 59.902 384.602 57.1601C381.014 56.6107 378.682 55.9428 376.35 55.9416C290.025 55.8952 203.7 55.7231 117.378 56.1577C106.754 56.2112 95.6002 58.0391 85.6368 61.6511C56.7191 72.1346 38.8244 92.1717 37.1822 124.133C36.6699 134.106 37.0123 144.126 37.0555 154.124C37.0894 161.967 34.7647 168.781 29.2091 174.515C20.6356 183.363 12.2268 192.371 3.39068 201.129C2.57919 198.928 1.73144 196.909 1.72872 194.89C1.6571 142.081 1.6849 89.2729 1.62966 36.4646C1.62753 34.4048 0.974236 32.3456 0.624352 30.2862C1.5436 12.5192 14.8794 0.0478815 33.2242 0.0399925C129.222 -0.00130454 225.22 0.00546856 321.218 0.000876556C359.884 -0.000977444 398.55 -0.00231337 437.215 0.0235816C450.358 0.0323856 462.204 3.90935 472.184 12.5852C483.171 22.1358 485.866 34.8111 479.833 48.9516C477.339 52.2744 475.356 55.1888 472.932 57.6737C454.908 76.1528 436.762 94.5137 418.717 112.973C330.004 203.723 241.306 294.488 152.614 385.258C132.711 405.628 112.835 426.023 93.0129 446.471C91.7886 447.734 88.6885 448.988 91.8972 451.874C93.8708 452.605 95.7306 453.263 97.591 453.265C155.693 453.319 213.794 453.31 271.896 453.31C312.683 453.31 353.471 453.332 394.258 453.23C396.091 453.225 397.92 452.078 400.142 451.323C431.479 447.272 449.678 426.648 449.685 395.482C449.688 384.331 449.708 373.179 449.695 362.027C449.686 355.206 450.751 348.472 455.289 343.281C464.138 333.159 473.501 323.486 482.652 313.626Z" fill="#1A4C34"/>
<path d="M2.16609 303.923C34.2835 270.059 66.1546 236.484 98.1393 203.017C124.49 175.445 150.983 148.009 177.395 120.495C182.037 115.659 187.497 111.766 194.198 111.56C208.955 111.107 223.735 111.419 239.279 111.419C238.027 112.91 237.208 114.026 236.251 115.006C169.885 182.891 103.482 250.74 37.1572 318.666C25.5232 330.581 14.222 342.821 2.74101 354.886C2.1237 355.534 1.26299 355.952 0.194445 356.289C-0.0574768 340.96 -0.0612621 325.817 0.163653 310.677C0.195574 308.529 1.33962 306.397 2.16609 303.923Z" fill="#1A4C35"/>
<path d="M480.711 249.891C458.347 273.023 436.15 295.798 413.958 318.578C389.778 343.4 365.622 368.246 341.408 393.035C336.869 397.682 331.395 401.279 324.842 401.481C311.594 401.888 298.324 401.602 284.262 401.602C285.381 400.158 286.12 399.004 287.05 398.032C351.776 330.386 416.518 262.754 481.263 195.125C481.49 194.889 481.795 194.727 482.393 194.479C482.716 210.844 482.771 227.262 482.623 243.679C482.606 245.636 481.488 247.584 480.711 249.891Z" fill="#1A4D35"/>
<path d="M479.833 109.96C466.251 123.708 452.806 137.095 439.418 150.541C412.15 177.927 384.925 205.356 357.621 232.706C356.422 233.907 354.641 235.187 353.081 235.255C346.503 235.538 339.905 235.374 332.395 235.374C333.597 233.954 334.142 233.211 334.785 232.564C383.884 183.195 432.99 133.834 482.427 84.4092C482.762 90.4615 483.019 96.5927 482.643 102.685C482.497 105.044 480.92 107.315 479.833 109.96Z" fill="#FE5F1E"/>
<path d="M2.61437 394.653C18.0326 378.753 33.3133 363.198 48.5475 347.597C49.6692 346.449 50.4562 344.973 51.3987 343.649C51.8437 343.922 52.2885 344.195 52.7334 344.468C52.7334 351.213 52.8007 357.96 52.659 364.702C52.6384 365.684 51.7904 366.809 51.0388 367.593C34.6727 384.666 18.2681 401.702 1.8496 418.725C1.56585 419.019 1.01998 419.06 0.270133 419.1C0.000875771 412.862 -0.121316 406.732 0.220389 400.628C0.327689 398.711 1.68191 396.864 2.61437 394.653Z" fill="#FE5F1E"/>
<path d="M91.8984 451.874C161.181 451.451 230.576 451.403 299.972 451.363C332.923 451.345 365.874 451.343 399.289 451.398C397.922 452.078 396.092 453.225 394.259 453.23C353.472 453.332 312.684 453.31 271.897 453.31C213.795 453.31 155.694 453.319 97.5923 453.265C95.7319 453.263 93.872 452.605 91.8984 451.874Z" fill="#073E24"/>
<path d="M399.769 381.316C409.163 381.305 418.109 381.305 428.117 381.305C427.47 390.89 427.809 400.475 425.991 409.631C422.684 426.289 408.357 437.952 390.639 439.065C380.363 439.711 370.014 439.182 359.701 439.182C354.707 409.842 366.492 385.468 399.769 381.316ZM379.242 407.409C375.46 412.544 374.336 418.411 374.082 424.587C397.271 427.12 413.285 418.184 412.097 395.888C398.427 394.021 387.668 397.655 379.242 407.409Z" fill="#FE5F1E"/>
<path d="M79.8805 88.3869C87.6788 82.8234 96.0645 79.6652 105.232 79.3094C114.829 78.9369 124.452 79.2262 134.548 79.2262C134.616 91.0506 135.96 102.881 131.966 114.292C126.395 130.21 114.918 139.984 98.4282 141.996C86.6504 143.433 74.5559 142.275 62.1359 142.275C60.617 122.342 61.6672 102.825 79.8805 88.3869ZM100.879 125.221C113.429 119.374 120.843 106.004 117.731 94.8296C93.6199 92.9414 76.5177 106.987 78.61 128.197C85.7926 127.277 92.9557 126.359 100.879 125.221Z" fill="#FE5F1E"/>
</svg>
